<?xml version="1.0" encoding="utf-8"?>
<svg version="1.1" xmlns:xlink="http://www.w3.org/1999/xlink" width="322px" height="54px" xmlns="http://www.w3.org/2000/svg">
  <g transform="matrix(1 0 0 1 -383 -44 )">
    <path d="M 385 48  A 2 2 0 0 1 387 46 L 701 46  A 2 2 0 0 1 703 48 L 703 94  A 2 2 0 0 1 701 96 L 387 96  A 2 2 0 0 1 385 94 L 385 48  Z " fill-rule="nonzero" fill="#fafafa" stroke="none" />
    <path d="M 384 48  A 3 3 0 0 1 387 45 L 701 45  A 3 3 0 0 1 704 48 L 704 94  A 3 3 0 0 1 701 97 L 387 97  A 3 3 0 0 1 384 94 L 384 48  Z " stroke-width="2" stroke="#777777" fill="none" stroke-opacity="0.0980392156862745" />
  </g>
</svg>